<mxfile host="app.diagrams.net" modified="2022-10-28T09:27:34.127Z" agent="5.0 (Windows NT 10.0; Win64; x64) AppleWebKit/537.36 (KHTML, like Gecko) Chrome/106.0.0.0 Safari/537.36" etag="Qw-XV0neoO-Aj07Hl9oD" version="20.5.1" type="github">
  <diagram id="DBt0KayN1UNihbAZkQTC" name="Trang-1">
    <mxGraphModel dx="1865" dy="539" grid="1" gridSize="10" guides="1" tooltips="1" connect="1" arrows="1" fold="1" page="1" pageScale="1" pageWidth="827" pageHeight="1169" math="0" shadow="0">
      <root>
        <mxCell id="0" />
        <mxCell id="1" parent="0" />
        <mxCell id="enhP4654jQGPy-_zlADG-12" value="" style="edgeStyle=orthogonalEdgeStyle;rounded=0;orthogonalLoop=1;jettySize=auto;html=1;" parent="1" source="enhP4654jQGPy-_zlADG-7" target="enhP4654jQGPy-_zlADG-11" edge="1">
          <mxGeometry relative="1" as="geometry" />
        </mxCell>
        <mxCell id="enhP4654jQGPy-_zlADG-7" value="[update serial number - service tag]&lt;br&gt;product _atribute_serial_num_tag" style="rounded=0;whiteSpace=wrap;html=1;" parent="1" vertex="1">
          <mxGeometry x="269" y="140" width="240" height="60" as="geometry" />
        </mxCell>
        <mxCell id="enhP4654jQGPy-_zlADG-14" value="" style="edgeStyle=orthogonalEdgeStyle;rounded=0;orthogonalLoop=1;jettySize=auto;html=1;" parent="1" source="enhP4654jQGPy-_zlADG-11" target="enhP4654jQGPy-_zlADG-13" edge="1">
          <mxGeometry relative="1" as="geometry" />
        </mxCell>
        <mxCell id="enhP4654jQGPy-_zlADG-28" value="" style="edgeStyle=orthogonalEdgeStyle;rounded=0;orthogonalLoop=1;jettySize=auto;html=1;" parent="1" source="enhP4654jQGPy-_zlADG-11" target="enhP4654jQGPy-_zlADG-26" edge="1">
          <mxGeometry relative="1" as="geometry" />
        </mxCell>
        <mxCell id="enhP4654jQGPy-_zlADG-11" value="[status update] product_in_test = true" style="rhombus;whiteSpace=wrap;html=1;" parent="1" vertex="1">
          <mxGeometry x="244" y="250" width="290" height="80" as="geometry" />
        </mxCell>
        <mxCell id="enhP4654jQGPy-_zlADG-20" value="" style="edgeStyle=orthogonalEdgeStyle;rounded=0;orthogonalLoop=1;jettySize=auto;html=1;" parent="1" source="enhP4654jQGPy-_zlADG-13" target="enhP4654jQGPy-_zlADG-19" edge="1">
          <mxGeometry relative="1" as="geometry" />
        </mxCell>
        <mxCell id="enhP4654jQGPy-_zlADG-13" value="[status update] product_status_test_passed = true&lt;br&gt;product_in_test = false" style="rounded=0;whiteSpace=wrap;html=1;" parent="1" vertex="1">
          <mxGeometry x="-10" y="260" width="189" height="60" as="geometry" />
        </mxCell>
        <mxCell id="enhP4654jQGPy-_zlADG-19" value="" style="rounded=0;whiteSpace=wrap;html=1;" parent="1" vertex="1">
          <mxGeometry x="-10" y="350" width="190" height="40" as="geometry" />
        </mxCell>
        <mxCell id="enhP4654jQGPy-_zlADG-23" value="" style="edgeStyle=orthogonalEdgeStyle;rounded=0;orthogonalLoop=1;jettySize=auto;html=1;" parent="1" source="enhP4654jQGPy-_zlADG-22" target="enhP4654jQGPy-_zlADG-7" edge="1">
          <mxGeometry relative="1" as="geometry" />
        </mxCell>
        <mxCell id="enhP4654jQGPy-_zlADG-22" value="&lt;span style=&quot;color: rgb(0, 0, 0); font-family: Helvetica; font-size: 12px; font-style: normal; font-variant-ligatures: normal; font-variant-caps: normal; font-weight: 400; letter-spacing: normal; orphans: 2; text-align: center; text-indent: 0px; text-transform: none; widows: 2; word-spacing: 0px; -webkit-text-stroke-width: 0px; background-color: rgb(248, 249, 250); text-decoration-thickness: initial; text-decoration-style: initial; text-decoration-color: initial; float: none; display: inline !important;&quot;&gt;(new product create)&lt;/span&gt;&lt;br style=&quot;color: rgb(0, 0, 0); font-family: Helvetica; font-size: 12px; font-style: normal; font-variant-ligatures: normal; font-variant-caps: normal; font-weight: 400; letter-spacing: normal; orphans: 2; text-align: center; text-indent: 0px; text-transform: none; widows: 2; word-spacing: 0px; -webkit-text-stroke-width: 0px; background-color: rgb(248, 249, 250); text-decoration-thickness: initial; text-decoration-style: initial; text-decoration-color: initial;&quot;&gt;&lt;span style=&quot;color: rgb(0, 0, 0); font-family: Helvetica; font-size: 12px; font-style: normal; font-variant-ligatures: normal; font-variant-caps: normal; font-weight: 400; letter-spacing: normal; orphans: 2; text-align: center; text-indent: 0px; text-transform: none; widows: 2; word-spacing: 0px; -webkit-text-stroke-width: 0px; background-color: rgb(248, 249, 250); text-decoration-thickness: initial; text-decoration-style: initial; text-decoration-color: initial; float: none; display: inline !important;&quot;&gt;product.name&lt;/span&gt;" style="ellipse;whiteSpace=wrap;html=1;rounded=0;" parent="1" vertex="1">
          <mxGeometry x="254" y="10" width="270" height="80" as="geometry" />
        </mxCell>
        <mxCell id="enhP4654jQGPy-_zlADG-25" value="" style="edgeStyle=orthogonalEdgeStyle;rounded=0;orthogonalLoop=1;jettySize=auto;html=1;" parent="1" source="enhP4654jQGPy-_zlADG-26" target="enhP4654jQGPy-_zlADG-27" edge="1">
          <mxGeometry relative="1" as="geometry" />
        </mxCell>
        <mxCell id="enhP4654jQGPy-_zlADG-26" value="[status update] product_status_test_passed = false&lt;br&gt;product_in_test = false" style="rounded=0;whiteSpace=wrap;html=1;" parent="1" vertex="1">
          <mxGeometry x="630" y="260" width="200" height="60" as="geometry" />
        </mxCell>
        <mxCell id="enhP4654jQGPy-_zlADG-27" value="" style="rounded=0;whiteSpace=wrap;html=1;" parent="1" vertex="1">
          <mxGeometry x="635" y="350" width="190" height="40" as="geometry" />
        </mxCell>
      </root>
    </mxGraphModel>
  </diagram>
</mxfile>
